<svg xmlns="http://www.w3.org/2000/svg" viewBox="0 0 1829 1829"><defs><style>.cls-1{fill:#218bbd;}.cls-2{fill:none;stroke:#bcbcbc;stroke-width:6px;}</style></defs><g id="Capa_2" data-name="Capa 2"><g id="Logo"><g id="LogoTransparente"><path class="cls-1" d="M459.31,1117.1q-30.94,0-53.87,22.44t-22.91,56.58q0,34.13,22.67,56.85t54.11,22.73q33.12,0,56-24t22.86-57.83q0-32-23.38-54.42T459.31,1117.1ZM914.5,3C411.09,3,3,411.09,3,914.5S411.09,1826,914.5,1826,1826,1417.91,1826,914.5,1417.91,3,914.5,3ZM315.87,1325.1H117.33V919.5h67.6V1251q0,12.23.81,13.86c.14.27,1.48.4,4,.4H315.87Zm270.8-3q-11-27.22-22-54.44-10.06,23.68-40.28,40.56a131.12,131.12,0,0,1-65.06,16.88q-54.51,0-92.95-38.21T327.93,1195q0-53.05,38.39-90.19T459,1067.7q49.6,0,85.39,31.87t43.19,78l58.82,146Zm315.87,13.16q0,59.38-44,102.62T752.67,1481.1q-41.16,0-70.93-14.54a111.55,111.55,0,0,1-24.85-16.87V1372.8L668,1387.5q19.21,25.51,38.51,34.86t46.19,9.34q37.22,0,64.94-28.13t27.73-66.16V1299.1q.57,10.28-24.77,18.14t-48.4,7.86q-59.28,0-94.45-37.19T642.53,1195q0-53,38.23-90.15t92.14-37.17q56.15,0,92.89,36t36.75,95.89Zm282.14-13.16-22-54.44q-10.08,23.68-40.28,40.56a131.15,131.15,0,0,1-65.06,16.88q-54.52,0-92.95-38.21T925.94,1195q0-53.05,38.39-90.19T1057,1067.7q49.6,0,85.4,31.87t43.18,78l58.83,146Zm120.86,3h-54.6V919.5h54.6Zm353.61,0V1181q0-23.93-14.79-41.33t-37.42-17.41q-20.88,0-36.34,17.29T1555.14,1181V1325.1h-52V1176.94q0-24.42-14.44-42.13t-36.42-17.71q-20.57,0-36.85,15.7t-16.29,38.78V1325.1h-52V1158.54q0-40.07,31.39-65.45t73.38-25.39a107.77,107.77,0,0,1,45.73,10q21.58,10,30.57,24,26.24-34,78.73-34,42.74,0,73.47,28.17t30.73,67.87V1325.1Zm-886.33-208q-30.35,0-53,22.61t-22.66,56.77q0,33.76,22,55.19t53.69,21.43q32.7,0,55.21-22.42t22.51-56.43q0-31.65-22.82-54.4T772.82,1117.1Zm284.5,0q-31,0-53.87,22.44t-22.91,56.58q0,34.13,22.67,56.85t54.11,22.73q33.11,0,56-24t22.85-57.83q0-32-23.38-54.42T1057.32,1117.1Z"/></g><circle id="Contorno" class="cls-2" cx="914.5" cy="914.5" r="911.5"/><path id="MarcaRegistrada" class="cls-1" d="M1754.36,1403.05a51.51,51.51,0,0,1,20,3.91,50.31,50.31,0,0,1,16.76,11.38,51.89,51.89,0,0,1,11,56,48.6,48.6,0,0,1-11.17,16.37,54.29,54.29,0,0,1-17.07,11.34,50.24,50.24,0,0,1-19.51,4,49.71,49.71,0,0,1-19.58-4,53.64,53.64,0,0,1-27.89-28.13,50.57,50.57,0,0,1,.18-39.09,53.78,53.78,0,0,1,11.55-17.14,47.47,47.47,0,0,1,16.16-10.89A51.65,51.65,0,0,1,1754.36,1403.05Zm44.89,51.94a46.62,46.62,0,0,0-3.25-17.47,42.21,42.21,0,0,0-9.47-14.33,44.28,44.28,0,0,0-32-13.22,45,45,0,0,0-17.13,3.27,41.24,41.24,0,0,0-14.06,9.39,47.28,47.28,0,0,0-10.1,14.89,43,43,0,0,0-.14,33.78,45.37,45.37,0,0,0,9.75,14.44,44.14,44.14,0,0,0,14.44,9.84,42.73,42.73,0,0,0,16.82,3.45,45.17,45.17,0,0,0,17.24-3.34,47.69,47.69,0,0,0,14.86-9.75,42.72,42.72,0,0,0,13-31Zm-43.56-30.73q12.15,0,18.26,4t6.11,12a15.41,15.41,0,0,1-3.51,10.35,16.7,16.7,0,0,1-9.89,5.38l13.11,26.73h-12.41l-11.81-25h-10.76v25h-10.94v-58.47Zm-1.94,7.14h-9v19.42H1754q7.85,0,11.25-2.22t3.4-7.11q0-5.33-3.54-7.7T1753.75,1431.4Z"/></g></g></svg>